<svg width="86" height="26" viewBox="0 0 86 26" fill="none" xmlns="http://www.w3.org/2000/svg">
  <path fill-rule="evenodd" clip-rule="evenodd"
    d="M40.5611 6.08389C42.6303 6.08389 44.4633 7.12367 45.6152 8.76232V0H47.9719V19.5002H45.6152V17.2377C44.4633 18.8795 42.6303 19.9161 40.5611 19.9161C36.6855 19.9161 33.4124 16.8742 33.4124 13.0004C33.4124 9.12665 36.6855 6.08389 40.5611 6.08389ZM40.5611 17.8358C43.6248 17.8358 45.6152 15.782 45.6152 13.0004C45.6152 10.2188 43.6248 8.16424 40.5611 8.16424C37.8383 8.16424 35.769 10.114 35.769 13.0004C35.769 15.8867 37.8383 17.8358 40.5611 17.8358ZM29.4849 8.76224C28.3329 7.12361 26.4999 6.08383 24.4315 6.08383C20.5552 6.08383 17.2821 9.12657 17.2821 13.0003C17.2821 16.8741 20.5552 19.9161 24.4315 19.9161C26.4739 19.9161 28.3038 18.8794 29.4849 17.2377V19.5002H31.8416V6.49975H29.4849V8.76224ZM29.4849 13.0003C29.4849 15.7562 27.4684 17.8357 24.4315 17.8357C21.708 17.8357 19.6387 15.8867 19.6387 13.0003C19.6387 10.114 21.708 8.16416 24.4315 8.16416C27.4952 8.16416 29.4849 10.2179 29.4849 13.0003ZM0 12.6602V13.3638C0.430203 13.3639 0.856172 13.4483 1.25354 13.6119C1.65092 13.7755 2.01192 14.0154 2.3159 14.3176C2.61987 14.6199 2.86088 14.9787 3.02513 15.3735C3.18938 15.7683 3.27365 16.1913 3.27314 16.6185H3.92823C3.92845 15.7566 4.27336 14.9301 4.88715 14.3206C5.50093 13.7112 6.33335 13.3687 7.20137 13.3685V12.6649C6.77117 12.6648 6.3452 12.5805 5.94783 12.4169C5.55046 12.2532 5.18945 12.0135 4.88547 11.7111C4.58149 11.4089 4.34049 11.0502 4.17624 10.6554C4.012 10.2606 3.92772 9.83751 3.92823 9.41037H3.27314C3.27293 10.2722 2.92801 11.0987 2.31423 11.7081C1.70044 12.3176 0.868026 12.66 0 12.6602ZM8.90289 8.19H3.27314V6.10962H8.90289C12.8571 6.10962 15.9736 9.20473 15.9736 13.0003C15.9736 16.7959 12.8571 19.8902 8.90289 19.8902H5.62976V25.9999H3.27314V17.8099H8.90289C11.6532 17.8099 13.6169 15.8609 13.6169 13.0003C13.6169 10.1398 11.6525 8.19 8.90289 8.19ZM62.0088 8.76232C60.8561 7.12367 59.023 6.08389 56.9546 6.08389C53.0791 6.08389 49.806 9.12665 49.806 13.0004C49.806 16.8742 53.0791 19.9161 56.9546 19.9161C59.023 19.9161 60.8561 18.8795 62.0088 17.2377V19.5002H64.3654V0H62.0088V8.76232ZM62.0088 13.0004C62.0088 15.782 60.0183 17.8358 56.9546 17.8358C54.231 17.8358 52.1626 15.8867 52.1626 13.0004C52.1626 10.114 54.231 8.16424 56.9546 8.16424C60.0183 8.16424 62.0088 10.2188 62.0088 13.0004ZM66.7193 19.5002V0H69.0767V19.5002H66.7193ZM84.5008 13.9111C84.5008 9.62065 82.3274 6.11041 77.7979 6.11041C73.8437 6.11041 70.78 9.25787 70.78 13.0011C70.78 16.7443 73.8437 19.8911 77.7979 19.8911C80.9404 19.8911 83.2699 17.9146 84.1604 15.9125H81.6205C80.6782 17.3424 79.4216 18.0711 77.7979 18.0711C75.4413 18.0711 73.5555 16.4324 73.1894 13.9111H84.5008ZM77.7979 7.93042C80.3112 7.93042 82.1446 9.95841 82.1446 12.0911H73.1894C73.5555 9.57214 75.4413 7.93042 77.7979 7.93042Z"
    fill="black" />
</svg>